<?xml version="1.0" encoding="UTF-8" standalone="no"?>
<svg
   xmlns:dc="http://purl.org/dc/elements/1.1/"
   xmlns:cc="http://creativecommons.org/ns#"
   xmlns:rdf="http://www.w3.org/1999/02/22-rdf-syntax-ns#"
   xmlns:svg="http://www.w3.org/2000/svg"
   xmlns="http://www.w3.org/2000/svg"
   xmlns:sodipodi="http://sodipodi.sourceforge.net/DTD/sodipodi-0.dtd"
   xmlns:inkscape="http://www.inkscape.org/namespaces/inkscape"
   viewBox="0 0 350 210"
   version="1.1"
   id="svg8"
   sodipodi:docname="ui.svg"
   inkscape:version="1.0.1 (c497b03c, 2020-09-10)">
  <sodipodi:namedview
     pagecolor="#ffffff"
     bordercolor="#666666"
     borderopacity="1"
     objecttolerance="10"
     gridtolerance="10"
     guidetolerance="10"
     inkscape:pageopacity="0"
     inkscape:pageshadow="2"
     inkscape:window-width="1440"
     inkscape:window-height="900"
     id="namedview907"
     showgrid="false"
     inkscape:zoom="1.9858757"
     inkscape:cx="285.48386"
     inkscape:cy="172.69809"
     inkscape:window-x="0"
     inkscape:window-y="0"
     inkscape:window-maximized="0"
     inkscape:current-layer="layer3"
     inkscape:document-rotation="0" />
  <defs
     id="defs2">
    <rect
       x="57.185303"
       y="90.150949"
       width="181.98382"
       height="65.931291"
       id="rect1018" />
    <rect
       x="112.9216"
       y="60.674292"
       width="131.42546"
       height="131.78201"
       id="rect933" />
    <rect
       x="72.633698"
       y="64.236732"
       width="134.35133"
       height="59.198563"
       id="rect843" />
    <rect
       x="112.9216"
       y="60.674292"
       width="129.97313"
       height="16.563876"
       id="rect956" />
    <rect
       x="112.9216"
       y="60.674292"
       width="129.97313"
       height="16.563876"
       id="rect970" />
    <rect
       x="112.9216"
       y="60.674292"
       width="129.97313"
       height="16.563876"
       id="rect972" />
    <rect
       x="112.9216"
       y="60.674292"
       width="195.88462"
       height="17.210067"
       id="rect978" />
    <rect
       x="112.9216"
       y="60.674292"
       width="129.97313"
       height="16.563876"
       id="rect998" />
    <rect
       x="112.9216"
       y="60.674292"
       width="195.88462"
       height="17.210067"
       id="rect1000" />
    <rect
       x="112.9216"
       y="60.674292"
       width="243.07757"
       height="17.210067"
       id="rect1010" />
    <rect
       x="112.9216"
       y="60.674294"
       width="221.954"
       height="130.32968"
       id="rect933-5" />
    <rect
       x="112.9216"
       y="60.674294"
       width="131.42546"
       height="131.78201"
       id="rect1707" />
    <rect
       x="112.9216"
       y="60.674294"
       width="221.95399"
       height="130.32968"
       id="rect933-5-6" />
    <rect
       x="112.9216"
       y="60.674294"
       width="221.95399"
       height="130.32968"
       id="rect992" />
    <rect
       x="112.9216"
       y="60.674294"
       width="221.95399"
       height="130.32968"
       id="rect933-5-6-6" />
    <rect
       x="112.9216"
       y="60.674294"
       width="221.95399"
       height="130.32968"
       id="rect1071" />
    <rect
       x="112.9216"
       y="60.674294"
       width="221.95399"
       height="130.32968"
       id="rect933-5-6-6-4" />
    <rect
       x="112.9216"
       y="60.674294"
       width="221.95399"
       height="130.32968"
       id="rect1125" />
  </defs>
  <metadata
     id="metadata5">
    <rdf:RDF>
      <cc:Work
         rdf:about="">
        <dc:format>image/svg+xml</dc:format>
        <dc:type
           rdf:resource="http://purl.org/dc/dcmitype/StillImage" />
        <dc:title />
      </cc:Work>
    </rdf:RDF>
  </metadata>
  <g
     id="layer3"
     style="display:inline">
    <g
       id="laptopobj"
       inkscape:export-xdpi="500"
       inkscape:export-ydpi="500"
       inkscape:export-filename="/Users/harshithadurai/Desktop/laptop.png">
      <path
         style="fill:#412192;fill-opacity:1;stroke:#de536a;stroke-width:0.5;stroke-miterlimit:4;stroke-dasharray:none;stroke-opacity:1"
         d="m 144.34347,140.77204 c -21.35569,0.0865 -42.71714,-0.16614 -64.069,0.26322 -2.893674,-0.29755 -4.578662,2.46049 -5.844791,4.58895 -11.087719,16.90317 -20.949851,31.78526 -31.635128,48.94738 -0.903394,1.16893 -1.424734,5.28467 0.34785,5.98991 2.117111,0.78769 2.946112,0.23266 5.171429,0.45921 59.00089,0.32194 118.00346,0.1411 177.00505,0.2012 27.17488,-0.0135 54.35694,0.0364 81.52732,-0.0168 1.37652,-0.47613 1.56936,-4.59219 0.85882,-6.39738 -1.50746,-3.34169 -2.05698,-3.19609 -3.9128,-6.36196 -10.00336,-15.34653 -19.87468,-30.79044 -30.20975,-45.91269 -2.20052,-2.31037 -5.66248,-1.30285 -8.47966,-1.62233 -40.25193,-0.25478 -80.5067,-0.0927 -120.75934,-0.13874 z"
         id="path958" />
      <rect
         style="fill:#412192;fill-opacity:1;stroke:#de536a;stroke-width:0.5;stroke-miterlimit:4;stroke-dasharray:none;stroke-opacity:1"
         id="rect848"
         width="197.51849"
         height="116.29788"
         x="76.301445"
         y="20.68187"
         rx="8.8932419" />
      <path
         style="fill:#090b46;fill-opacity:1;stroke:#de536a;stroke-width:0.5;stroke-miterlimit:4;stroke-dasharray:none;stroke-opacity:1"
         d="m 144.79631,136.53868 c -21.04086,0.0865 -42.08739,-0.16614 -63.124487,0.26323 -2.851015,-0.29755 -4.511163,2.46048 -5.758626,4.58895 -10.924263,16.90317 -22.108896,33.64055 -32.636649,50.80267 -0.890076,1.16893 -1.499938,3.42937 0.246514,4.13461 2.085901,0.78769 4.466777,0.23266 6.659289,0.45921 58.131089,0.32194 116.263839,0.1411 174.395619,0.2012 26.77427,-0.0135 53.55561,0.0364 80.32544,-0.0168 1.35623,-0.47613 3.36771,-1.53466 2.66764,-3.33984 -1.48524,-3.3417 -3.84814,-6.25362 -5.6766,-9.4195 -9.85589,-15.34652 -19.58168,-30.79044 -29.7644,-45.91269 -2.16807,-2.31037 -5.579,-1.30285 -8.35465,-1.62233 -39.65853,-0.25478 -79.31985,-0.0927 -118.97909,-0.13873 z"
         id="path906" />
      <rect
         style="fill:#090b46;fill-opacity:1;stroke:none;stroke-width:1.49581;stroke-opacity:1"
         id="rect954"
         width="187.05562"
         height="106.90579"
         x="81.532883"
         y="25.377914"
         rx="8.4221516" />
      <path
         style="fill:#090b46;fill-opacity:1;stroke:#090b46;stroke-width:1.01411;stroke-linecap:butt;stroke-linejoin:miter;stroke-miterlimit:4;stroke-dasharray:none;stroke-opacity:1"
         d="M 81.142474,136.80189 268.48506,136.67741"
         id="path1170" />
      <path
         style="display:inline;fill:#090b46;fill-opacity:1;stroke:#090b46;stroke-width:1.20516;stroke-linecap:butt;stroke-linejoin:miter;stroke-miterlimit:4;stroke-dasharray:none;stroke-opacity:1"
         d="m 43.323718,194.57159 c -0.504946,1.92038 0.215309,2.12547 0.934728,2.33173 l 260.272804,-0.047 c 1.32803,-0.45194 3.03083,-0.77519 2.18907,-2.72497"
         id="path1170-6" />
    </g>
    <g
       id="aboutpressed"
       transform="translate(-64.316234,-23.445327)"
       inkscape:export-filename="/Users/harshithadurai/Desktop/laptop.png"
       inkscape:export-xdpi="500"
       inkscape:export-ydpi="500">
      <g
         id="g987"
         transform="translate(63.97857,27.389689)">
        <path
           id="path957"
           style="display:inline;opacity:1;fill:#594093;fill-opacity:1;stroke-width:0.610097"
           d="m 121.38242,142.94576 c -9.39101,-0.0472 -18.78249,0.26459 -28.150544,0.91875 -1.627817,2.76793 -3.093087,5.64517 -4.545787,8.51313 3.08778,0.33261 6.318244,0.0378 9.459568,0.13771 19.813593,0 39.627193,0 59.440793,0 1.10898,-2.72833 1.92692,-5.63352 2.80875,-8.46575 -2.1243,-0.52694 -4.52985,-0.25627 -6.76088,-0.47185 -10.74449,-0.46734 -21.49699,-0.70279 -32.2519,-0.63199 z"
           transform="matrix(1.0880891,0,0,0.99999999,-9.6856003,-1.0583334)" />
        <text
           xml:space="preserve"
           style="font-style:normal;font-variant:normal;font-weight:bold;font-stretch:normal;font-size:5.64444px;line-height:1.25;font-family:'Bangla Sangam MN';-inkscape-font-specification:'Bangla Sangam MN Bold';letter-spacing:5.29167px;white-space:pre;inline-size:69.9098;display:inline;opacity:0.82;fill:#c65072;fill-opacity:1;stroke:none;stroke-width:0.264583"
           x="106.44446"
           y="144.26443"
           id="text977"
           transform="matrix(1,0,-0.71739823,1,100.99081,3.3932095)"><tspan
             x="106.44446"
             y="144.26443"><tspan
               style="font-style:normal;font-variant:normal;font-weight:bold;font-stretch:normal;font-size:5.64444px;font-family:'Bangla Sangam MN';-inkscape-font-specification:'Bangla Sangam MN Bold';fill:#c65072;fill-opacity:1;stroke-width:0.264583">ABOUT</tspan></tspan></text>
      </g>
    </g>
    <g
       id="aboutobj"
       onmouseover="style.opacity = 0;"
       onmouseout="style.opacity = 1;"
       onclick="open(&quot;https://inkscape.org&quot;,&quot;_blank&quot;);"
       inkscape:export-filename="/Users/harshithadurai/Desktop/laptop.png"
       inkscape:export-xdpi="500"
       inkscape:export-ydpi="500">
      <g
         id="g957"
         transform="matrix(1.0880891,0,0,1,-9.6856002,-1.0583333)"
         style="display:inline">
        <path
           id="path1065"
           style="fill:none;fill-opacity:1;stroke:#4a2a8d;stroke-width:0.302337px;stroke-linecap:butt;stroke-linejoin:miter;stroke-opacity:1"
           d="m 160.73851,143.5832 c 0.0241,1.86776 0.46277,3.77847 0.19234,5.6157 -0.71794,2.51329 -1.87748,4.87337 -3.19301,7.1231" />
        <path
           id="path910"
           style="fill:#594093;fill-opacity:1;stroke-width:0.610097"
           d="m 121.38242,142.94576 c -9.39101,-0.0472 -18.78249,0.26459 -28.150544,0.91875 -1.627817,2.76793 -3.093087,5.64517 -4.545787,8.51313 3.08778,0.33261 6.318244,0.0378 9.459568,0.13771 19.813593,0 39.627193,0 59.440793,0 1.10898,-2.72833 1.92692,-5.63352 2.80875,-8.46575 -2.1243,-0.52694 -4.52985,-0.25627 -6.76088,-0.47185 -10.74449,-0.46734 -21.49699,-0.70279 -32.2519,-0.63199 z" />
        <path
           id="path912"
           style="fill:#4a2a8d;fill-opacity:1;stroke-width:0.596336"
           d="m 88.528799,152.73364 c -0.296045,2.02714 -0.312531,4.25353 2.2885,3.5091 22.233341,0 44.466691,0 66.700031,0 0.38074,-1.75209 0.64798,-4.4456 -2.00667,-3.56782 -22.2866,0.004 -44.57338,6.8e-4 -66.860047,0.002 l -0.08408,0.0393 z" />
        <path
           id="path916"
           style="fill:#4a2a8d;fill-opacity:1;stroke-width:0.515829"
           d="m 160.41191,144.22101 c -0.85965,3.19244 -3.10518,6.21419 -2.94631,9.55304 0.0437,1.61439 0.55562,2.95177 1.24375,0.7204 1.17852,-2.52395 2.73416,-5.18832 2.188,-8.06866 -0.23006,-0.50139 0.22846,-2.15783 -0.48544,-2.20478 z" />
        <path
           id="path963"
           style="fill:none;fill-opacity:1;stroke:#4a2a8d;stroke-width:0.408068px;stroke-linecap:butt;stroke-linejoin:miter;stroke-opacity:1"
           d="m 88.375761,152.51096 c 0,1.27035 0,2.54069 0,3.81104 23.101189,-0.0147 46.202699,0.0677 69.303459,-0.11724 -0.02,-1.16369 -0.04,-2.32737 -0.06,-3.49106" />
        <path
           id="path961"
           style="fill:none;fill-opacity:1;stroke:#594093;stroke-width:0.408068px;stroke-linecap:butt;stroke-linejoin:miter;stroke-opacity:1"
           d="m 93.126892,143.77022 c -1.64319,2.88726 -3.134954,5.86091 -4.694842,8.79473 22.96618,-0.005 45.93236,-0.01 68.89854,-0.0147 1.09796,-2.92667 2.19592,-5.85335 3.29388,-8.78002 -22.48217,-1.00274 -45.0263,-1.57108 -67.497578,0 z" />
      </g>
      <text
         xml:space="preserve"
         style="font-style:normal;font-variant:normal;font-weight:bold;font-stretch:normal;font-size:5.64444px;line-height:1.25;font-family:'Bangla Sangam MN';-inkscape-font-specification:'Bangla Sangam MN Bold';letter-spacing:5.29167px;white-space:pre;inline-size:69.9098;display:inline;opacity:0.82;fill:#c65072;fill-opacity:1;stroke:none;stroke-width:0.264583"
         x="106.44446"
         y="144.26443"
         id="abouttext"
         transform="matrix(1,0,-0.71739823,1,100.99081,3.3932095)"><tspan
           x="106.44446"
           y="144.26443"><tspan
             style="font-style:normal;font-variant:normal;font-weight:bold;font-stretch:normal;font-size:5.64444px;font-family:'Bangla Sangam MN';-inkscape-font-specification:'Bangla Sangam MN Bold';fill:#c65072;fill-opacity:1;stroke-width:0.264583">ABOUT</tspan></tspan></text>
    </g>
    <g
       id="skillspressed"
       transform="translate(-3.2437816,67.146133)"
       inkscape:export-filename="/Users/harshithadurai/Desktop/laptop.png"
       inkscape:export-xdpi="500"
       inkscape:export-ydpi="500">
      <path
         style="display:inline;fill:#594093;fill-opacity:1;stroke-width:2.30588"
         d="m 458.76822,540.26744 c -23.47344,-0.0171 -46.95103,0.22012 -70.39687,1.44604 -12.00619,0.5483 -24.01342,1.12168 -35.9989,2.02642 -2.38393,3.09712 -3.84433,7.03799 -5.87187,10.46072 -3.72653,7.24758 -7.86715,14.38135 -11.30906,21.71489 1.37375,1.21301 4.06376,0.17646 5.93083,0.52047 84.82666,0 169.65332,-10e-6 254.47998,0 1.46985,-1.3799 1.43929,-4.02131 2.3328,-5.8809 2.67448,-8.72703 5.86363,-17.31932 8.28294,-26.11564 -0.81486,-1.35871 -3.00441,-0.50673 -4.36918,-0.88776 -30.12522,-1.31691 -60.2621,-2.48366 -90.41112,-3.06488 -17.55559,-0.20664 -35.11291,-0.23893 -52.66955,-0.21936 z"
         id="path1680"
         transform="matrix(-0.28789024,0,0,0.26458333,363.28197,-64.841242)" />
      <path
         style="display:inline;fill:none;fill-opacity:1;stroke:#594093;stroke-width:0.408068px;stroke-linecap:butt;stroke-linejoin:miter;stroke-opacity:1"
         d="m 93.126892,143.77022 c 0.167923,-0.49754 -4.694842,8.79473 -4.694842,8.79473 l 68.89854,-0.0147 3.29388,-8.78002 c -22.85197,-1.00548 -44.64562,-1.57443 -67.497578,0"
         id="path1688"
         transform="matrix(-1.0880891,0,0,0.99999999,363.28197,-64.841242)" />
      <text
         xml:space="preserve"
         style="font-style:normal;font-variant:normal;font-weight:bold;font-stretch:normal;font-size:5.64444px;line-height:1.25;font-family:'Bangla Sangam MN';-inkscape-font-specification:'Bangla Sangam MN Bold';letter-spacing:5.29167px;display:inline;opacity:0.82;fill:#c65072;fill-opacity:1;stroke:none;stroke-width:0.264583"
         x="157.9494"
         y="83.74646"
         id="text1694"
         transform="skewX(29.8546)"><tspan
           id="tspan1692"
           x="157.9494"
           y="83.74646"
           style="font-style:normal;font-variant:normal;font-weight:bold;font-stretch:normal;font-size:5.64444px;font-family:'Bangla Sangam MN';-inkscape-font-specification:'Bangla Sangam MN Bold';fill:#c65072;fill-opacity:1;stroke-width:0.264583">SKILLS</tspan></text>
    </g>
    <g
       id="skillsobj"
       onmouseover="style.opacity = 0;"
       onmouseout="style.opacity = 1;"
       inkscape:export-filename="/Users/harshithadurai/Desktop/laptop.png"
       inkscape:export-xdpi="500"
       inkscape:export-ydpi="500">
      <g
         id="g1000"
         transform="matrix(-1.0880891,0,0,1,359.80698,-1.4224958)"
         style="display:inline;opacity:1">
        <path
           style="fill:none;fill-opacity:1;stroke:#4a2a8d;stroke-width:0.302337px;stroke-linecap:butt;stroke-linejoin:miter;stroke-opacity:1"
           d="m 160.73851,143.5832 0.33795,5.09518 c -0.75459,2.80745 -1.8609,5.09746 -3.33862,7.64362"
           id="path988" />
        <path
           style="fill:#594093;fill-opacity:1;stroke-width:2.30588"
           d="m 458.76822,540.26744 c -23.47344,-0.0171 -46.95103,0.22012 -70.39687,1.44604 -12.00619,0.5483 -24.01342,1.12168 -35.9989,2.02642 -2.38393,3.09712 -3.84433,7.03799 -5.87187,10.46072 -3.72653,7.24758 -7.86715,14.38135 -11.30906,21.71489 1.37375,1.21301 4.06376,0.17646 5.93083,0.52047 84.82666,0 169.65332,-10e-6 254.47998,0 1.46985,-1.3799 1.43929,-4.02131 2.3328,-5.8809 2.67448,-8.72703 5.86363,-17.31932 8.28294,-26.11564 -0.81486,-1.35871 -3.00441,-0.50673 -4.36918,-0.88776 -30.12522,-1.31691 -60.2621,-2.48366 -90.41112,-3.06488 -17.55559,-0.20664 -35.11291,-0.23893 -52.66955,-0.21936 z"
           id="path990"
           transform="scale(0.26458333)" />
        <path
           style="fill:#4a2a8d;fill-opacity:1;stroke-width:2.25387"
           d="m 334.59704,577.26099 c -0.32949,4.17111 -0.0431,8.45052 -0.13977,12.66258 1.30744,1.37978 4.02038,0.21758 5.86197,0.60017 85.00729,0 170.01458,0 255.02187,0 1.37978,-1.30744 0.21758,-4.02038 0.60018,-5.86197 -0.14203,-2.47643 0.28808,-5.07993 -0.21513,-7.47614 -10.60265,-0.3269 -21.3122,-0.046 -31.95584,-0.13977 -76.23763,0 -152.47525,0 -228.71288,0 l -0.3178,0.1485 z"
           id="path992"
           transform="scale(0.26458333)" />
        <path
           style="fill:#4a2a8d;fill-opacity:1;stroke-width:1.94959"
           d="m 606.28126,545.08729 c -3.60689,9.86296 -8.40656,21.48681 -11.64595,31.48059 0.14355,3.4731 1.33234,9.2283 1.81865,12.62695 1.51745,0.29474 1.77493,-2.95144 2.636,-3.85976 4.0803,-7.53726 7.43264,-15.57528 9.56777,-23.84283 -0.48994,-4.45663 -0.51487,-11.69875 -1.31969,-16.10934 -0.15935,-0.39322 -0.7995,-0.58763 -1.05678,-0.29561 z"
           id="path994"
           transform="scale(0.26458333)" />
        <path
           style="fill:none;fill-opacity:1;stroke:#4a2a8d;stroke-width:0.408068px;stroke-linecap:butt;stroke-linejoin:miter;stroke-opacity:1"
           d="m 88.375761,152.51096 v 3.81104 c 0,0 25.273469,-0.003 36.648109,0.008 12.32026,0.0122 32.65535,-0.12524 32.65535,-0.12524 l -0.06,-3.49106"
           id="path996" />
        <path
           style="fill:none;fill-opacity:1;stroke:#594093;stroke-width:0.408068px;stroke-linecap:butt;stroke-linejoin:miter;stroke-opacity:1"
           d="m 93.126892,143.77022 c 0.167923,-0.49754 -4.694842,8.79473 -4.694842,8.79473 l 68.89854,-0.0147 3.29388,-8.78002 c -22.85197,-1.00548 -44.64562,-1.57443 -67.497578,0"
           id="path998" />
      </g>
      <text
         xml:space="preserve"
         style="display:inline;opacity:0.82;font-style:normal;font-variant:normal;font-weight:bold;font-stretch:normal;font-size:5.64444000000000035px;line-height:1.25;font-family:'Bangla Sangam MN';-inkscape-font-specification:'Bangla Sangam MN Bold';letter-spacing:5.29166999999999987px;fill:#c65072;fill-opacity:1;stroke:none;stroke-width:0.264583"
         x="118.07384"
         y="147.16521"
         id="text1118-8"
         transform="skewX(29.8546)"><tspan
           id="tspan1116-5"
           x="118.07384"
           y="147.16521"
           style="font-style:normal;font-variant:normal;font-weight:bold;font-stretch:normal;font-size:5.64444px;font-family:'Bangla Sangam MN';-inkscape-font-specification:'Bangla Sangam MN Bold';fill:#c65072;fill-opacity:1;stroke-width:0.264583">SKILLS</tspan></text>
    </g>
    <g
       id="projectspressed"
       transform="translate(-21.660374,68.014885)"
       inkscape:export-filename="/Users/harshithadurai/Desktop/laptop.png"
       inkscape:export-xdpi="500"
       inkscape:export-ydpi="500">
      <path
         style="fill:#594093;fill-opacity:1;stroke-width:0.636402"
         d="m 135.70729,95.021968 c -6.75778,-0.0045 -13.51675,0.05824 -20.26657,0.382598 -3.45647,0.145071 -6.91323,0.296778 -10.36374,0.536157 -0.68631,0.819447 -1.10674,1.862135 -1.69045,2.767733 -1.07283,1.917584 -2.26488,3.805064 -3.25577,5.745394 0.39549,0.32095 1.16992,0.0467 1.70743,0.13771 24.42077,0 48.84154,0 73.2623,0 0.42316,-0.3651 0.41436,-1.06397 0.67159,-1.55599 0.76996,-2.30902 1.68808,-4.5824 2.38458,-6.90976 -0.23459,-0.359492 -0.86494,-0.134072 -1.25784,-0.234886 -8.67276,-0.348433 -17.34887,-0.657136 -26.02848,-0.810917 -5.05409,-0.05467 -10.10867,-0.06322 -15.16305,-0.05804 z"
         id="path1757" />
      <path
         style="fill:none;fill-opacity:1;stroke:#594093;stroke-width:0.425662px;stroke-linecap:butt;stroke-linejoin:miter;stroke-opacity:1"
         d="m 104.96275,95.84643 c 0.18272,-0.49754 -5.108405,8.79473 -5.108405,8.79473 l 74.967755,-0.0147 3.58403,-8.78002 c -24.86498,-1.00548 -48.57841,-1.57443 -73.44338,0"
         id="path1765" />
      <text
         xml:space="preserve"
         style="font-style:normal;font-variant:normal;font-weight:bold;font-stretch:normal;font-size:5.64444px;line-height:1.25;font-family:'Bangla Sangam MN';-inkscape-font-specification:'Bangla Sangam MN Bold';letter-spacing:4.49792px;display:inline;opacity:0.82;fill:#c65072;fill-opacity:1;stroke:none;stroke-width:0.264583"
         x="167.55751"
         y="100.97306"
         id="text1771"
         transform="skewX(-30.853101)"><tspan
           id="tspan1769"
           x="167.55751"
           y="100.97306"
           style="font-style:normal;font-variant:normal;font-weight:bold;font-stretch:normal;font-size:5.64444px;font-family:'Bangla Sangam MN';-inkscape-font-specification:'Bangla Sangam MN Bold';fill:#c65072;fill-opacity:1;stroke-width:0.264583">PROJECTS</tspan></text>
    </g>
    <g
       id="projectsobj"
       onmouseover="style.opacity = 0;"
       onmouseout="style.opacity = 1;"
       inkscape:export-filename="/Users/harshithadurai/Desktop/laptop.png"
       inkscape:export-xdpi="500"
       inkscape:export-ydpi="500">
      <g
         id="g972"
         transform="matrix(1.0880891,0,0,1,-17.796771,16.363707)"
         style="display:inline;opacity:1">
        <path
           style="fill:none;fill-opacity:1;stroke:#4a2a8d;stroke-width:0.302337px;stroke-linecap:butt;stroke-linejoin:miter;stroke-opacity:1"
           d="m 160.73851,143.5832 0.33795,5.09518 c -0.75459,2.80745 -1.8609,5.09746 -3.33862,7.64362"
           id="path959" />
        <path
           style="fill:#594093;fill-opacity:1;stroke-width:2.30588"
           d="m 458.76822,540.26744 c -23.47344,-0.0171 -46.95103,0.22012 -70.39687,1.44604 -12.00619,0.5483 -24.01342,1.12168 -35.9989,2.02642 -2.38393,3.09712 -3.84433,7.03799 -5.87187,10.46072 -3.72653,7.24758 -7.86715,14.38135 -11.30906,21.71489 1.37375,1.21301 4.06376,0.17646 5.93083,0.52047 84.82666,0 169.65332,-10e-6 254.47998,0 1.46985,-1.3799 1.43929,-4.02131 2.3328,-5.8809 2.67448,-8.72703 5.86363,-17.31932 8.28294,-26.11564 -0.81486,-1.35871 -3.00441,-0.50673 -4.36918,-0.88776 -30.12522,-1.31691 -60.2621,-2.48366 -90.41112,-3.06488 -17.55559,-0.20664 -35.11291,-0.23893 -52.66955,-0.21936 z"
           id="path962"
           transform="scale(0.26458333)" />
        <path
           style="fill:#4a2a8d;fill-opacity:1;stroke-width:2.25387"
           d="m 334.59704,577.26099 c -0.32949,4.17111 -0.0431,8.45052 -0.13977,12.66258 1.30744,1.37978 4.02038,0.21758 5.86197,0.60017 85.00729,0 170.01458,0 255.02187,0 1.37978,-1.30744 0.21758,-4.02038 0.60018,-5.86197 -0.14203,-2.47643 0.28808,-5.07993 -0.21513,-7.47614 -10.60265,-0.3269 -21.3122,-0.046 -31.95584,-0.13977 -76.23763,0 -152.47525,0 -228.71288,0 l -0.3178,0.1485 z"
           id="path964"
           transform="scale(0.26458333)" />
        <path
           style="fill:#4a2a8d;fill-opacity:1;stroke-width:1.94959"
           d="m 606.28126,545.08729 c -3.60689,9.86296 -8.40656,21.48681 -11.64595,31.48059 0.14355,3.4731 1.33234,9.2283 1.81865,12.62695 1.51745,0.29474 1.77493,-2.95144 2.636,-3.85976 4.0803,-7.53726 7.43264,-15.57528 9.56777,-23.84283 -0.48994,-4.45663 -0.51487,-11.69875 -1.31969,-16.10934 -0.15935,-0.39322 -0.7995,-0.58763 -1.05678,-0.29561 z"
           id="path966"
           transform="scale(0.26458333)" />
        <path
           style="fill:none;fill-opacity:1;stroke:#4a2a8d;stroke-width:0.408068px;stroke-linecap:butt;stroke-linejoin:miter;stroke-opacity:1"
           d="m 88.375761,152.51096 v 3.81104 c 0,0 25.273469,-0.003 36.648109,0.008 12.32026,0.0122 32.65535,-0.12524 32.65535,-0.12524 l -0.06,-3.49106"
           id="path968" />
        <path
           style="fill:none;fill-opacity:1;stroke:#594093;stroke-width:0.408068px;stroke-linecap:butt;stroke-linejoin:miter;stroke-opacity:1"
           d="m 93.126892,143.77022 c 0.167923,-0.49754 -4.694842,8.79473 -4.694842,8.79473 l 68.89854,-0.0147 3.29388,-8.78002 c -22.85197,-1.00548 -44.64562,-1.57443 -67.497578,0"
           id="path970" />
      </g>
      <text
         xml:space="preserve"
         style="display:inline;opacity:0.82;font-style:normal;font-variant:normal;font-weight:bold;font-stretch:normal;font-size:5.64444000000000035px;line-height:1.25;font-family:'Bangla Sangam MN';-inkscape-font-specification:'Bangla Sangam MN Bold';letter-spacing:4.49791999999999970px;fill:#c65072;fill-opacity:1;stroke:none;stroke-width:0.264583"
         x="184.53218"
         y="165.26056"
         id="text1118-1"
         transform="skewX(-30.853101)"><tspan
           id="tspan1116-50"
           x="184.53218"
           y="165.26056"
           style="font-style:normal;font-variant:normal;font-weight:bold;font-stretch:normal;font-size:5.64444px;font-family:'Bangla Sangam MN';-inkscape-font-specification:'Bangla Sangam MN Bold';fill:#c65072;fill-opacity:1;stroke-width:0.264583">PROJECTS</tspan></text>
    </g>
    <g
       id="experiencepressed"
       transform="translate(-0.06503317,3.5189941)"
       inkscape:export-filename="/Users/harshithadurai/Desktop/laptop.png"
       inkscape:export-xdpi="500"
       inkscape:export-ydpi="500">
      <g
         id="g1808"
         transform="matrix(-1.0880891,0,0,1,367.91815,15.999544)"
         style="display:inline;opacity:1" />
      <g
         id="g1831">
        <path
           style="display:inline;opacity:1;fill:#594093;fill-opacity:1;stroke-width:2.30588"
           d="m 458.76822,540.26744 c -23.47344,-0.0171 -46.95103,0.22012 -70.39687,1.44604 -12.00619,0.5483 -24.01342,1.12168 -35.9989,2.02642 -2.38393,3.09712 -3.84433,7.03799 -5.87187,10.46072 -3.72653,7.24758 -7.86715,14.38135 -11.30906,21.71489 1.37375,1.21301 4.06376,0.17646 5.93083,0.52047 84.82666,0 169.65332,-10e-6 254.47998,0 1.46985,-1.3799 1.43929,-4.02131 2.3328,-5.8809 2.67448,-8.72703 5.86363,-17.31932 8.28294,-26.11564 -0.81486,-1.35871 -3.00441,-0.50673 -4.36918,-0.88776 -30.12522,-1.31691 -60.2621,-2.48366 -90.41112,-3.06488 -17.55559,-0.20664 -35.11291,-0.23893 -52.66955,-0.21936 z"
           id="path1798"
           transform="matrix(-0.28789024,0,0,0.26458333,367.91815,15.999544)" />
        <path
           style="display:inline;opacity:1;fill:none;fill-opacity:1;stroke:#594093;stroke-width:0.408068px;stroke-linecap:butt;stroke-linejoin:miter;stroke-opacity:1"
           d="m 93.126892,143.77022 c 0.167923,-0.49754 -4.694842,8.79473 -4.694842,8.79473 l 68.89854,-0.0147 3.29388,-8.78002 c -22.85197,-1.00548 -44.64562,-1.57443 -67.497578,0"
           id="path1806"
           transform="matrix(-1.0880891,0,0,0.99999999,367.91815,15.999544)" />
        <text
           xml:space="preserve"
           style="font-style:normal;font-variant:normal;font-weight:bold;font-stretch:normal;font-size:5.64444px;line-height:1.25;font-family:'Bangla Sangam MN';-inkscape-font-specification:'Bangla Sangam MN Bold';letter-spacing:3.43958px;display:inline;opacity:0.82;fill:#c65072;fill-opacity:1;stroke:none;stroke-width:0.264583"
           x="105.22208"
           y="165.03685"
           id="text1812"
           transform="skewX(29.8546)"><tspan
             id="tspan1810"
             x="105.22208"
             y="165.03685"
             style="font-style:normal;font-variant:normal;font-weight:bold;font-stretch:normal;font-size:5.64444px;font-family:'Bangla Sangam MN';-inkscape-font-specification:'Bangla Sangam MN Bold';fill:#c65072;fill-opacity:1;stroke-width:0.264583">EXPERIENCE</tspan></text>
      </g>
    </g>
    <g
       id="experienceobj"
       onmouseover="style.opacity = 0;"
       onmouseout="style.opacity = 1;"
       inkscape:export-filename="/Users/harshithadurai/Desktop/laptop.png"
       inkscape:export-xdpi="500"
       inkscape:export-ydpi="500">
      <g
         id="g1014"
         transform="matrix(-1.0880891,0,0,1,367.91815,15.999544)"
         style="display:inline;opacity:1">
        <path
           style="fill:none;fill-opacity:1;stroke:#4a2a8d;stroke-width:0.302337px;stroke-linecap:butt;stroke-linejoin:miter;stroke-opacity:1"
           d="m 160.73851,143.5832 0.33795,5.09518 c -0.75459,2.80745 -1.8609,5.09746 -3.33862,7.64362"
           id="path1002" />
        <path
           style="fill:#594093;fill-opacity:1;stroke-width:2.30588"
           d="m 458.76822,540.26744 c -23.47344,-0.0171 -46.95103,0.22012 -70.39687,1.44604 -12.00619,0.5483 -24.01342,1.12168 -35.9989,2.02642 -2.38393,3.09712 -3.84433,7.03799 -5.87187,10.46072 -3.72653,7.24758 -7.86715,14.38135 -11.30906,21.71489 1.37375,1.21301 4.06376,0.17646 5.93083,0.52047 84.82666,0 169.65332,-10e-6 254.47998,0 1.46985,-1.3799 1.43929,-4.02131 2.3328,-5.8809 2.67448,-8.72703 5.86363,-17.31932 8.28294,-26.11564 -0.81486,-1.35871 -3.00441,-0.50673 -4.36918,-0.88776 -30.12522,-1.31691 -60.2621,-2.48366 -90.41112,-3.06488 -17.55559,-0.20664 -35.11291,-0.23893 -52.66955,-0.21936 z"
           id="path1004"
           transform="scale(0.26458333)" />
        <path
           style="fill:#4a2a8d;fill-opacity:1;stroke-width:2.25387"
           d="m 334.59704,577.26099 c -0.32949,4.17111 -0.0431,8.45052 -0.13977,12.66258 1.30744,1.37978 4.02038,0.21758 5.86197,0.60017 85.00729,0 170.01458,0 255.02187,0 1.37978,-1.30744 0.21758,-4.02038 0.60018,-5.86197 -0.14203,-2.47643 0.28808,-5.07993 -0.21513,-7.47614 -10.60265,-0.3269 -21.3122,-0.046 -31.95584,-0.13977 -76.23763,0 -152.47525,0 -228.71288,0 l -0.3178,0.1485 z"
           id="path1006"
           transform="scale(0.26458333)" />
        <path
           style="fill:#4a2a8d;fill-opacity:1;stroke-width:1.94959"
           d="m 606.28126,545.08729 c -3.60689,9.86296 -8.40656,21.48681 -11.64595,31.48059 0.14355,3.4731 1.33234,9.2283 1.81865,12.62695 1.51745,0.29474 1.77493,-2.95144 2.636,-3.85976 4.0803,-7.53726 7.43264,-15.57528 9.56777,-23.84283 -0.48994,-4.45663 -0.51487,-11.69875 -1.31969,-16.10934 -0.15935,-0.39322 -0.7995,-0.58763 -1.05678,-0.29561 z"
           id="path1008"
           transform="scale(0.26458333)" />
        <path
           style="fill:none;fill-opacity:1;stroke:#4a2a8d;stroke-width:0.408068px;stroke-linecap:butt;stroke-linejoin:miter;stroke-opacity:1"
           d="m 88.375761,152.51096 v 3.81104 c 0,0 25.273469,-0.003 36.648109,0.008 12.32026,0.0122 32.65535,-0.12524 32.65535,-0.12524 l -0.06,-3.49106"
           id="path1010" />
        <path
           style="fill:none;fill-opacity:1;stroke:#594093;stroke-width:0.408068px;stroke-linecap:butt;stroke-linejoin:miter;stroke-opacity:1"
           d="m 93.126892,143.77022 c 0.167923,-0.49754 -4.694842,8.79473 -4.694842,8.79473 l 68.89854,-0.0147 3.29388,-8.78002 c -22.85197,-1.00548 -44.64562,-1.57443 -67.497578,0"
           id="path1012" />
      </g>
      <text
         xml:space="preserve"
         style="display:inline;opacity:0.82;font-style:normal;font-variant:normal;font-weight:bold;font-stretch:normal;font-size:5.64444000000000035px;line-height:1.25;font-family:'Bangla Sangam MN';-inkscape-font-specification:'Bangla Sangam MN Bold';letter-spacing:3.43957999999999986px;fill:#c65072;fill-opacity:1;stroke:none;stroke-width:0.264583"
         x="105.22208"
         y="165.03685"
         id="text1118-04"
         transform="skewX(29.8546)"><tspan
           id="tspan1116-3"
           x="105.22208"
           y="165.03685"
           style="font-style:normal;font-variant:normal;font-weight:bold;font-stretch:normal;font-size:5.64444px;font-family:'Bangla Sangam MN';-inkscape-font-specification:'Bangla Sangam MN Bold';fill:#c65072;fill-opacity:1;stroke-width:0.264583">EXPERIENCE</tspan></text>
    </g>
    <g
       id="interestspressed"
       transform="translate(-28.32079,96.394049)"
       inkscape:export-filename="/Users/harshithadurai/Desktop/laptop.png"
       inkscape:export-xdpi="500"
       inkscape:export-ydpi="500">
      <path
         style="fill:#594093;fill-opacity:1;stroke-width:0.636402"
         d="m 133.24896,84.44176 c -6.75778,-0.0045 -13.51675,0.05824 -20.26657,0.382598 -3.45647,0.145071 -6.91323,0.296778 -10.36374,0.536157 -0.68631,0.819447 -1.10674,1.862135 -1.69045,2.767733 -1.072831,1.917588 -2.264876,3.805065 -3.255768,5.745397 0.395489,0.320943 1.169917,0.04669 1.707428,0.137708 24.42077,0 48.84154,-3e-6 73.2623,0 0.42316,-0.365098 0.41436,-1.063971 0.67159,-1.555988 0.76996,-2.309027 1.68808,-4.582403 2.38458,-6.909763 -0.23459,-0.359492 -0.86494,-0.134072 -1.25784,-0.234886 -8.67276,-0.348433 -17.34887,-0.657136 -26.02848,-0.810917 -5.05409,-0.05467 -10.10867,-0.06322 -15.16305,-0.05804 z"
         id="path1835" />
      <path
         style="fill:none;fill-opacity:1;stroke:#594093;stroke-width:0.425662px;stroke-linecap:butt;stroke-linejoin:miter;stroke-opacity:1"
         d="m 102.50442,85.266222 c 0.18272,-0.49754 -5.108405,8.79473 -5.108405,8.79473 l 74.967755,-0.0147 3.58403,-8.78002 c -24.86498,-1.00548 -48.57841,-1.57443 -73.44338,0"
         id="path1843" />
      <text
         xml:space="preserve"
         style="font-style:normal;font-variant:normal;font-weight:bold;font-stretch:normal;font-size:5.64444px;line-height:1.25;font-family:'Bangla Sangam MN';-inkscape-font-specification:'Bangla Sangam MN Bold';letter-spacing:4.49792px;display:inline;opacity:0.82;fill:#c65072;fill-opacity:1;stroke:none;stroke-width:0.264583"
         x="158.02229"
         y="90.626656"
         id="text1849"
         transform="skewX(-31.173289)"><tspan
           id="tspan1847"
           x="158.02229"
           y="90.626656"
           style="font-style:normal;font-variant:normal;font-weight:bold;font-stretch:normal;font-size:5.64444px;font-family:'Bangla Sangam MN';-inkscape-font-specification:'Bangla Sangam MN Bold';fill:#c65072;fill-opacity:1;stroke-width:0.264583">INTERESTS</tspan></text>
    </g>
    <g
       id="achievementsobj"
       onmouseover="style.opacity = 0;"
       onmouseout="style.opacity = 1;"
       inkscape:export-filename="/Users/harshithadurai/Desktop/laptop.png"
       inkscape:export-xdpi="500"
       inkscape:export-ydpi="500">
      <g
         id="g986"
         transform="matrix(1.0880891,0,0,1,-26.915517,34.162664)"
         style="display:inline;opacity:1">
        <path
           style="fill:none;fill-opacity:1;stroke:#4a2a8d;stroke-width:0.302337px;stroke-linecap:butt;stroke-linejoin:miter;stroke-opacity:1"
           d="m 160.73851,143.5832 0.33795,5.09518 c -0.75459,2.80745 -1.8609,5.09746 -3.33862,7.64362"
           id="path974" />
        <path
           style="fill:#594093;fill-opacity:1;stroke-width:2.30588"
           d="m 458.76822,540.26744 c -23.47344,-0.0171 -46.95103,0.22012 -70.39687,1.44604 -12.00619,0.5483 -24.01342,1.12168 -35.9989,2.02642 -2.38393,3.09712 -3.84433,7.03799 -5.87187,10.46072 -3.72653,7.24758 -7.86715,14.38135 -11.30906,21.71489 1.37375,1.21301 4.06376,0.17646 5.93083,0.52047 84.82666,0 169.65332,-10e-6 254.47998,0 1.46985,-1.3799 1.43929,-4.02131 2.3328,-5.8809 2.67448,-8.72703 5.86363,-17.31932 8.28294,-26.11564 -0.81486,-1.35871 -3.00441,-0.50673 -4.36918,-0.88776 -30.12522,-1.31691 -60.2621,-2.48366 -90.41112,-3.06488 -17.55559,-0.20664 -35.11291,-0.23893 -52.66955,-0.21936 z"
           id="path976"
           transform="scale(0.26458333)" />
        <path
           style="fill:#4a2a8d;fill-opacity:1;stroke-width:2.25387"
           d="m 334.59704,577.26099 c -0.32949,4.17111 -0.0431,8.45052 -0.13977,12.66258 1.30744,1.37978 4.02038,0.21758 5.86197,0.60017 85.00729,0 170.01458,0 255.02187,0 1.37978,-1.30744 0.21758,-4.02038 0.60018,-5.86197 -0.14203,-2.47643 0.28808,-5.07993 -0.21513,-7.47614 -10.60265,-0.3269 -21.3122,-0.046 -31.95584,-0.13977 -76.23763,0 -152.47525,0 -228.71288,0 l -0.3178,0.1485 z"
           id="path978"
           transform="scale(0.26458333)" />
        <path
           style="fill:#4a2a8d;fill-opacity:1;stroke-width:1.94959"
           d="m 606.28126,545.08729 c -3.60689,9.86296 -8.40656,21.48681 -11.64595,31.48059 0.14355,3.4731 1.33234,9.2283 1.81865,12.62695 1.51745,0.29474 1.77493,-2.95144 2.636,-3.85976 4.0803,-7.53726 7.43264,-15.57528 9.56777,-23.84283 -0.48994,-4.45663 -0.51487,-11.69875 -1.31969,-16.10934 -0.15935,-0.39322 -0.7995,-0.58763 -1.05678,-0.29561 z"
           id="path980"
           transform="scale(0.26458333)" />
        <path
           style="fill:none;fill-opacity:1;stroke:#4a2a8d;stroke-width:0.408068px;stroke-linecap:butt;stroke-linejoin:miter;stroke-opacity:1"
           d="m 88.375761,152.51096 v 3.81104 c 0,0 25.273469,-0.003 36.648109,0.008 12.32026,0.0122 32.65535,-0.12524 32.65535,-0.12524 l -0.06,-3.49106"
           id="path982" />
        <path
           style="fill:none;fill-opacity:1;stroke:#594093;stroke-width:0.408068px;stroke-linecap:butt;stroke-linejoin:miter;stroke-opacity:1"
           d="m 93.126892,143.77022 c 0.167923,-0.49754 -4.694842,8.79473 -4.694842,8.79473 l 68.89854,-0.0147 3.29388,-8.78002 c -22.85197,-1.00548 -44.64562,-1.57443 -67.497578,0"
           id="path984" />
      </g>
      <text
         xml:space="preserve"
         style="font-style:normal;font-variant:normal;font-weight:bold;font-stretch:normal;font-size:5.64444px;line-height:1.25;font-family:'Bangla Sangam MN';-inkscape-font-specification:'Bangla Sangam MN Bold';letter-spacing:2.3px;display:inline;opacity:0.82;fill:#c65072;fill-opacity:1;stroke:none;stroke-width:0.264583"
         x="183.99461"
         y="183.29332"
         id="text1118-1-1"
         transform="skewX(-31.173289)"><tspan
           id="tspan1116-50-9"
           x="183.99461"
           y="183.29332"
           style="font-style:normal;font-variant:normal;font-weight:bold;font-stretch:normal;font-size:5.64444px;font-family:'Bangla Sangam MN';-inkscape-font-specification:'Bangla Sangam MN Bold';fill:#c65072;fill-opacity:1;stroke-width:0.264583">ACHIEVEMENTS</tspan></text>
    </g>
    <g
       id="contactpressed"
       transform="translate(24.959758,92.822126)"
       inkscape:export-filename="/Users/harshithadurai/Desktop/laptop.png"
       inkscape:export-xdpi="500"
       inkscape:export-ydpi="500">
      <path
         style="fill:#594093;fill-opacity:1;stroke-width:0.636402"
         d="m 219.47869,87.263011 c 6.75777,-0.0045 13.51674,0.05824 20.26657,0.382598 3.45646,0.145071 6.91323,0.296778 10.36373,0.536157 0.68631,0.819447 1.10675,1.862135 1.69045,2.767733 1.07284,1.917588 2.26488,3.805065 3.25577,5.745397 -0.39549,0.320943 -1.16991,0.04669 -1.70743,0.137708 -24.42076,0 -48.84153,-3e-6 -73.2623,0 -0.42315,-0.365098 -0.41436,-1.063971 -0.67159,-1.555988 -0.76995,-2.309027 -1.68808,-4.582403 -2.38458,-6.909763 0.23459,-0.359492 0.86494,-0.134072 1.25785,-0.234886 8.67276,-0.348433 17.34887,-0.657136 26.02848,-0.810917 5.05408,-0.05467 10.10866,-0.06322 15.16305,-0.05804 z"
         id="path1876" />
      <path
         style="fill:none;fill-opacity:1;stroke:#594093;stroke-width:0.425662px;stroke-linecap:butt;stroke-linejoin:miter;stroke-opacity:1"
         d="m 250.22322,88.087473 c -0.18271,-0.49754 5.10841,8.79473 5.10841,8.79473 l -74.96775,-0.0147 -3.58404,-8.78002 c 24.86498,-1.00548 48.57842,-1.57443 73.44338,0"
         id="path1884" />
      <text
         xml:space="preserve"
         style="font-style:normal;font-variant:normal;font-weight:bold;font-stretch:normal;font-size:5.64444px;line-height:1.25;font-family:'Bangla Sangam MN';-inkscape-font-specification:'Bangla Sangam MN Bold';letter-spacing:4.49792px;display:inline;opacity:0.82;fill:#c65072;fill-opacity:1;stroke:none;stroke-width:0.264583"
         x="132.41853"
         y="93.208771"
         id="text1890"
         transform="skewX(30.956087)"><tspan
           id="tspan1888"
           x="132.41853"
           y="93.208771"
           style="font-style:normal;font-variant:normal;font-weight:bold;font-stretch:normal;font-size:5.64444px;font-family:'Bangla Sangam MN';-inkscape-font-specification:'Bangla Sangam MN Bold';fill:#c65072;fill-opacity:1;stroke-width:0.264583">CONTACT</tspan></text>
    </g>
    <g
       id="contactobj"
       onmouseover="style.opacity = 0;"
       onmouseout="style.opacity = 1;"
       inkscape:export-filename="/Users/harshithadurai/Desktop/laptop.png"
       inkscape:export-xdpi="500"
       inkscape:export-ydpi="500">
      <g
         id="g1028"
         transform="matrix(-1.0880891,0,0,1,377.03691,33.798499)"
         style="display:inline;opacity:1">
        <path
           style="fill:none;fill-opacity:1;stroke:#4a2a8d;stroke-width:0.302337px;stroke-linecap:butt;stroke-linejoin:miter;stroke-opacity:1"
           d="m 160.73851,143.5832 0.33795,5.09518 c -0.75459,2.80745 -1.8609,5.09746 -3.33862,7.64362"
           id="path1016" />
        <path
           style="fill:#594093;fill-opacity:1;stroke-width:2.30588"
           d="m 458.76822,540.26744 c -23.47344,-0.0171 -46.95103,0.22012 -70.39687,1.44604 -12.00619,0.5483 -24.01342,1.12168 -35.9989,2.02642 -2.38393,3.09712 -3.84433,7.03799 -5.87187,10.46072 -3.72653,7.24758 -7.86715,14.38135 -11.30906,21.71489 1.37375,1.21301 4.06376,0.17646 5.93083,0.52047 84.82666,0 169.65332,-10e-6 254.47998,0 1.46985,-1.3799 1.43929,-4.02131 2.3328,-5.8809 2.67448,-8.72703 5.86363,-17.31932 8.28294,-26.11564 -0.81486,-1.35871 -3.00441,-0.50673 -4.36918,-0.88776 -30.12522,-1.31691 -60.2621,-2.48366 -90.41112,-3.06488 -17.55559,-0.20664 -35.11291,-0.23893 -52.66955,-0.21936 z"
           id="path1018"
           transform="scale(0.26458333)" />
        <path
           style="fill:#4a2a8d;fill-opacity:1;stroke-width:2.25387"
           d="m 334.59704,577.26099 c -0.32949,4.17111 -0.0431,8.45052 -0.13977,12.66258 1.30744,1.37978 4.02038,0.21758 5.86197,0.60017 85.00729,0 170.01458,0 255.02187,0 1.37978,-1.30744 0.21758,-4.02038 0.60018,-5.86197 -0.14203,-2.47643 0.28808,-5.07993 -0.21513,-7.47614 -10.60265,-0.3269 -21.3122,-0.046 -31.95584,-0.13977 -76.23763,0 -152.47525,0 -228.71288,0 l -0.3178,0.1485 z"
           id="path1020"
           transform="scale(0.26458333)" />
        <path
           style="fill:#4a2a8d;fill-opacity:1;stroke-width:1.94959"
           d="m 606.28126,545.08729 c -3.60689,9.86296 -8.40656,21.48681 -11.64595,31.48059 0.14355,3.4731 1.33234,9.2283 1.81865,12.62695 1.51745,0.29474 1.77493,-2.95144 2.636,-3.85976 4.0803,-7.53726 7.43264,-15.57528 9.56777,-23.84283 -0.48994,-4.45663 -0.51487,-11.69875 -1.31969,-16.10934 -0.15935,-0.39322 -0.7995,-0.58763 -1.05678,-0.29561 z"
           id="path1022"
           transform="scale(0.26458333)" />
        <path
           style="fill:none;fill-opacity:1;stroke:#4a2a8d;stroke-width:0.408068px;stroke-linecap:butt;stroke-linejoin:miter;stroke-opacity:1"
           d="m 88.375761,152.51096 v 3.81104 c 0,0 25.273469,-0.003 36.648109,0.008 12.32026,0.0122 32.65535,-0.12524 32.65535,-0.12524 l -0.06,-3.49106"
           id="path1024" />
        <path
           style="fill:none;fill-opacity:1;stroke:#594093;stroke-width:0.408068px;stroke-linecap:butt;stroke-linejoin:miter;stroke-opacity:1"
           d="m 93.126892,143.77022 c 0.167923,-0.49754 -4.694842,8.79473 -4.694842,8.79473 l 68.89854,-0.0147 3.29388,-8.78002 c -22.85197,-1.00548 -44.64562,-1.57443 -67.497578,0"
           id="path1026" />
      </g>
      <text
         xml:space="preserve"
         style="display:inline;opacity:0.82;font-style:normal;font-variant:normal;font-weight:bold;font-stretch:normal;font-size:5.64444000000000035px;line-height:1.25;font-family:'Bangla Sangam MN';-inkscape-font-specification:'Bangla Sangam MN Bold';letter-spacing:4.49791999999999970px;fill:#c65072;fill-opacity:1;stroke:none;stroke-width:0.264583"
         x="104.2294"
         y="182.69002"
         id="text1118-1-1-1"
         transform="skewX(30.956087)"><tspan
           id="tspan1116-50-9-8"
           x="104.2294"
           y="182.69002"
           style="font-style:normal;font-variant:normal;font-weight:bold;font-stretch:normal;font-size:5.64444px;font-family:'Bangla Sangam MN';-inkscape-font-specification:'Bangla Sangam MN Bold';fill:#c65072;fill-opacity:1;stroke-width:0.264583">CONTACT</tspan></text>
    </g>
    <text
       xml:space="preserve"
       id="text1016"
       style="font-style:normal;font-weight:normal;font-size:10.58329999999999949px;line-height:1.25;font-family:sans-serif;white-space:pre;shape-inside:url(#rect1018);fill:#000000;fill-opacity:1;stroke:none;"
       transform="matrix(0.80384925,0,0,0.80384925,18.355536,2.5557358)" />
  </g>
</svg>
